<?xml version="1.0" encoding="utf-8"?>
<!-- Generator: Adobe Illustrator 23.0.4, SVG Export Plug-In . SVG Version: 6.00 Build 0)  -->
<svg version="1.1" id="圖層_1" xmlns="http://www.w3.org/2000/svg" xmlns:xlink="http://www.w3.org/1999/xlink" x="0px" y="0px"
	 viewBox="0 0 512 512" style="enable-background:new 0 0 512 512;" xml:space="preserve">
<style type="text/css">
	.st0{fill:none;stroke:#F3C91E;stroke-width:21.2901;stroke-linecap:round;stroke-linejoin:round;stroke-miterlimit:10;}
	.st1{fill:#0E592F;}
	.st2{fill:#F7F7F7;}
</style>
<g id="KmzjbI_2_">
	<g>
		<path class="st0" d="M492.9,221.4c-1.3,1.1-2.1,1.6-2.8,2.3c-37.4,34.1-74.8,68.3-112.2,102.4c-5.4,4.9-10.6,9.9-16.2,14.6
			c-6.4,5.4-14,4.1-17.1-2.5c-2-4.3-0.5-9.1,4.1-13.3c46.7-42.4,93.4-84.7,140.2-127c3-2.7,4.3-5.5,3.6-9.2c-1.3-7-2.2-14-4.2-20.8
			c-7-23.7-19.8-44.3-35-63.5c-6.4-8.1-14.9-12.5-24.9-14.6c-3.6-0.8-5.1,0.3-6.5,3.5c-27.7,60.7-55.6,121.3-83.4,181.9
			c-4.4,9.7-8.8,19.4-13.4,29c-1.9,4-5.1,7.5-9.6,6.6c-3-0.6-6.3-3.1-8.3-5.6c-2.7-3.4-0.9-7.3,0.8-11
			c32-69.7,63.8-139.5,96.2-209.1c3.6-7.8,2.7-13.2-2.6-18.9c-0.5-0.6-1.1-1.2-1.6-1.8c-9.3-11.2-22-16.8-35.5-20.4
			C343.1,38,321.6,33,300.2,27.7c-9.7-2.4-19.2-1.5-28.3,2.8c-3.6,1.7-5.4,3.8-5.4,8.4c0.2,82.1,0.1,164.2,0.1,246.3
			c0,2.1,0,4.2-0.3,6.3c-0.7,4.7-4.7,8-9.4,8.1c-5,0.1-9.1-3.2-9.8-8.2c-0.3-1.7-0.3-3.5-0.3-5.3c0-40,0-80,0-120
			c0-41.9,0-83.9,0.1-125.8c0-3.4-1-5.2-4-6.7c-8.9-4.4-18.3-6.4-28.1-5.3C185.8,31.3,158.1,39,131.6,51
			c-9.7,4.4-17.9,10.8-24.4,19.3c-2,2.7-2.1,4.8-0.7,7.8c33.6,70.4,67.2,140.8,100.7,211.2c1,2,1.9,4.1,2.5,6.3
			c1.3,4.8-1.1,9.5-5.5,11.7c-4.2,2-9.1,0.9-12.1-3.2c-1.2-1.7-2.2-3.6-3.1-5.5c-11.7-24.8-23.4-49.6-35.2-74.3
			c-20.6-43.5-41.3-87-61.8-130.7c-1.9-4.1-3.9-4.9-8.1-3.6c-7.4,2.3-14.1,5.7-19.5,11.2c-14.1,14.1-24.1,31-32.4,48.9
			c-6.1,13.1-10.7,26.7-9.6,41.4c0.2,2.1,1.2,4.8,2.8,6.1c37.9,32.1,75.9,64.1,113.8,96.1c10.4,8.7,20.8,17.3,31.1,26.1
			c6.4,5.5,6.1,13.5-0.5,17.4c-3.9,2.3-8.1,1.4-13.2-2.9c-36.9-31.1-73.7-62.1-110.6-93.2c-8.3-7-16.7-14-25.3-21.2
			c-5.6,7.3-7.7,15.4-8.7,23.7c-2,15.9-0.2,31.5,3.1,47c5.1,24.3,17.1,44.3,37.6,58.8c14.8,10.5,31.5,16.7,48.1,23.4
			c16.7,6.8,33.6,13.4,49.6,21.5c20.7,10.5,35.6,27.9,49.8,45.8c7.7,9.7,15.3,19.8,24.3,28c22,20.1,52.9,17.1,71.7-6.1
			c6.6-8.1,13-16.4,18.9-25.1c16.1-23.3,37.6-39.7,63.3-50.8c21.4-9.3,43.4-17.3,64.8-26.7c23.7-10.4,41.2-27.3,50.5-51.9
			c7.1-18.7,9-38.2,8.4-58C501.8,239.9,498.7,230.4,492.9,221.4z M316.7,469.2c16.6,0.7,32.3,3,47.2-3.5c7.4-3.2,11.8-11.4,10.6-19
			c-1.6-10.5-6.5-19.4-12.8-28C342.5,431.6,330.5,450.3,316.7,469.2z M196.5,470.9c0.2-0.7,0.4-1.4,0.6-2
			c-14.9-17.1-26.5-37.3-47.2-50.7c-3.5,8.2-7.6,15.8-9.9,23.9c-3.8,13.5,2.3,23.6,16.3,25.8C169.5,470,183.1,470,196.5,470.9z"/>
		<path class="st0" d="M492.9,221.4c5.8,9.1,8.9,18.6,9.2,28.6c0.6,19.8-1.3,39.3-8.4,58c-9.3,24.6-26.8,41.5-50.5,51.9
			c-21.4,9.4-43.4,17.4-64.8,26.7c-25.6,11.1-47.2,27.5-63.3,50.8c-5.9,8.6-12.4,16.9-18.9,25.1c-18.8,23.2-49.7,26.1-71.7,6.1
			c-9.1-8.3-16.7-18.3-24.3-28c-14.2-17.9-29.1-35.4-49.8-45.8c-16.1-8.1-32.9-14.7-49.6-21.5c-16.6-6.8-33.3-13-48.1-23.4
			c-20.5-14.5-32.5-34.5-37.6-58.8c-3.3-15.5-5.1-31.2-3.1-47c1.1-8.3,3.1-16.4,8.7-23.7c8.6,7.2,16.9,14.2,25.3,21.2
			c36.9,31.1,73.8,62.1,110.6,93.2c5.1,4.3,9.3,5.2,13.2,2.9c6.6-3.9,7-11.9,0.5-17.4c-10.3-8.8-20.8-17.4-31.1-26.1
			c-38-32-76-64-113.8-96.1c-1.6-1.3-2.6-4-2.8-6.1c-1.1-14.8,3.5-28.3,9.6-41.4c8.4-17.9,18.4-34.8,32.4-48.9
			c5.4-5.4,12.1-8.9,19.5-11.2c4.2-1.3,6.2-0.5,8.1,3.6c20.5,43.6,41.2,87.1,61.8,130.7c11.7,24.8,23.4,49.6,35.2,74.3
			c0.9,1.9,1.8,3.8,3.1,5.5c3,4,7.8,5.2,12.1,3.2c4.4-2.1,6.8-6.9,5.5-11.7c-0.6-2.2-1.5-4.2-2.5-6.3
			c-33.5-70.4-67.1-140.9-100.7-211.2c-1.5-3-1.4-5.2,0.7-7.8c6.5-8.5,14.8-14.9,24.4-19.3c26.5-12,54.2-19.7,83.1-22.8
			c9.8-1.1,19.2,0.9,28.1,5.3c3,1.5,4.1,3.3,4,6.7c-0.1,41.9-0.1,83.9-0.1,125.8c0,40,0,80,0,120c0,1.8,0,3.6,0.3,5.3
			c0.8,4.9,4.8,8.3,9.8,8.2c4.7-0.1,8.7-3.4,9.4-8.1c0.3-2.1,0.3-4.2,0.3-6.3c0-82.1,0.1-164.2-0.1-246.3c0-4.6,1.9-6.7,5.4-8.4
			c9.1-4.3,18.6-5.2,28.3-2.8c21.4,5.3,42.9,10.3,64.2,16.1c13.5,3.7,26.2,9.2,35.5,20.4c0.5,0.6,1,1.2,1.6,1.8
			c5.3,5.7,6.2,11.1,2.6,18.9c-32.4,69.6-64.2,139.4-96.2,209.1c-1.7,3.6-3.4,7.6-0.8,11c2,2.5,5.2,5,8.3,5.6
			c4.6,0.8,7.7-2.6,9.6-6.6c4.5-9.6,8.9-19.3,13.4-29c27.8-60.6,55.7-121.2,83.4-181.9c1.5-3.2,2.9-4.3,6.5-3.5
			c10,2.1,18.5,6.5,24.9,14.6c15.2,19.2,28.1,39.8,35,63.5c2,6.8,2.9,13.8,4.2,20.8c0.7,3.7-0.6,6.5-3.6,9.2
			c-46.8,42.2-93.5,84.6-140.2,127c-4.7,4.2-6.1,9-4.1,13.3c3.1,6.6,10.7,7.9,17.1,2.5c5.6-4.7,10.8-9.7,16.2-14.6
			c37.4-34.1,74.8-68.3,112.2-102.4C490.8,223,491.6,222.4,492.9,221.4z"/>
		<path class="st0" d="M316.7,469.2c13.8-18.9,25.8-37.6,45-50.5c6.2,8.6,11.2,17.6,12.8,28c1.1,7.5-3.2,15.7-10.6,19
			C348.9,472.2,333.3,470,316.7,469.2z"/>
		<path class="st0" d="M196.5,470.9c-13.4-0.9-27-0.9-40.2-3c-14-2.2-20.1-12.3-16.3-25.8c2.3-8.1,6.4-15.6,9.9-23.9
			c20.7,13.4,32.2,33.6,47.2,50.7C196.8,469.5,196.7,470.2,196.5,470.9z"/>
	</g>
</g>
<g id="KmzjbI_1_">
	<g>
		<path class="st1" d="M492.9,221.4c-1.3,1.1-2.1,1.6-2.8,2.3c-37.4,34.1-74.8,68.3-112.2,102.4c-5.4,4.9-10.6,9.9-16.2,14.6
			c-6.4,5.4-14,4.1-17.1-2.5c-2-4.3-0.5-9.1,4.1-13.3c46.7-42.4,93.4-84.7,140.2-127c3-2.7,4.3-5.5,3.6-9.2c-1.3-7-2.2-14-4.2-20.8
			c-7-23.7-19.8-44.3-35-63.5c-6.4-8.1-14.9-12.5-24.9-14.6c-3.6-0.8-5.1,0.3-6.5,3.5c-27.7,60.7-55.6,121.3-83.4,181.9
			c-4.4,9.7-8.8,19.4-13.4,29c-1.9,4-5.1,7.5-9.6,6.6c-3-0.6-6.3-3.1-8.3-5.6c-2.7-3.4-0.9-7.3,0.8-11
			c32-69.7,63.8-139.5,96.2-209.1c3.6-7.8,2.7-13.2-2.6-18.9c-0.5-0.6-1.1-1.2-1.6-1.8c-9.3-11.2-22-16.8-35.5-20.4
			C343.1,38,321.6,33,300.2,27.7c-9.7-2.4-19.2-1.5-28.3,2.8c-3.6,1.7-5.4,3.8-5.4,8.4c0.2,82.1,0.1,164.2,0.1,246.3
			c0,2.1,0,4.2-0.3,6.3c-0.7,4.7-4.7,8-9.4,8.1c-5,0.1-9.1-3.2-9.8-8.2c-0.3-1.7-0.3-3.5-0.3-5.3c0-40,0-80,0-120
			c0-41.9,0-83.9,0.1-125.8c0-3.4-1-5.2-4-6.7c-8.9-4.4-18.3-6.4-28.1-5.3C185.8,31.3,158.1,39,131.6,51
			c-9.7,4.4-17.9,10.8-24.4,19.3c-2,2.7-2.1,4.8-0.7,7.8c33.6,70.4,67.2,140.8,100.7,211.2c1,2,1.9,4.1,2.5,6.3
			c1.3,4.8-1.1,9.5-5.5,11.7c-4.2,2-9.1,0.9-12.1-3.2c-1.2-1.7-2.2-3.6-3.1-5.5c-11.7-24.8-23.4-49.6-35.2-74.3
			c-20.6-43.5-41.3-87-61.8-130.7c-1.9-4.1-3.9-4.9-8.1-3.6c-7.4,2.3-14.1,5.7-19.5,11.2c-14.1,14.1-24.1,31-32.4,48.9
			c-6.1,13.1-10.7,26.7-9.6,41.4c0.2,2.1,1.2,4.8,2.8,6.1c37.9,32.1,75.9,64.1,113.8,96.1c10.4,8.7,20.8,17.3,31.1,26.1
			c6.4,5.5,6.1,13.5-0.5,17.4c-3.9,2.3-8.1,1.4-13.2-2.9c-36.9-31.1-73.7-62.1-110.6-93.2c-8.3-7-16.7-14-25.3-21.2
			c-5.6,7.3-7.7,15.4-8.7,23.7c-2,15.9-0.2,31.5,3.1,47c5.1,24.3,17.1,44.3,37.6,58.8c14.8,10.5,31.5,16.7,48.1,23.4
			c16.7,6.8,33.6,13.4,49.6,21.5c20.7,10.5,35.6,27.9,49.8,45.8c7.7,9.7,15.3,19.8,24.3,28c22,20.1,52.9,17.1,71.7-6.1
			c6.6-8.1,13-16.4,18.9-25.1c16.1-23.3,37.6-39.7,63.3-50.8c21.4-9.3,43.4-17.3,64.8-26.7c23.7-10.4,41.2-27.3,50.5-51.9
			c7.1-18.7,9-38.2,8.4-58C501.8,239.9,498.7,230.4,492.9,221.4z M316.7,469.2c16.6,0.7,32.3,3,47.2-3.5c7.4-3.2,11.8-11.4,10.6-19
			c-1.6-10.5-6.5-19.4-12.8-28C342.5,431.6,330.5,450.3,316.7,469.2z M196.5,470.9c0.2-0.7,0.4-1.4,0.6-2
			c-14.9-17.1-26.5-37.3-47.2-50.7c-3.5,8.2-7.6,15.8-9.9,23.9c-3.8,13.5,2.3,23.6,16.3,25.8C169.5,470,183.1,470,196.5,470.9z"/>
		<path class="st1" d="M492.9,221.4c5.8,9.1,8.9,18.6,9.2,28.6c0.6,19.8-1.3,39.3-8.4,58c-9.3,24.6-26.8,41.5-50.5,51.9
			c-21.4,9.4-43.4,17.4-64.8,26.7c-25.6,11.1-47.2,27.5-63.3,50.8c-5.9,8.6-12.4,16.9-18.9,25.1c-18.8,23.2-49.7,26.1-71.7,6.1
			c-9.1-8.3-16.7-18.3-24.3-28c-14.2-17.9-29.1-35.4-49.8-45.8c-16.1-8.1-32.9-14.7-49.6-21.5c-16.6-6.8-33.3-13-48.1-23.4
			c-20.5-14.5-32.5-34.5-37.6-58.8c-3.3-15.5-5.1-31.2-3.1-47c1.1-8.3,3.1-16.4,8.7-23.7c8.6,7.2,16.9,14.2,25.3,21.2
			c36.9,31.1,73.8,62.1,110.6,93.2c5.1,4.3,9.3,5.2,13.2,2.9c6.6-3.9,7-11.9,0.5-17.4c-10.3-8.8-20.8-17.4-31.1-26.1
			c-38-32-76-64-113.8-96.1c-1.6-1.3-2.6-4-2.8-6.1c-1.1-14.8,3.5-28.3,9.6-41.4c8.4-17.9,18.4-34.8,32.4-48.9
			c5.4-5.4,12.1-8.9,19.5-11.2c4.2-1.3,6.2-0.5,8.1,3.6c20.5,43.6,41.2,87.1,61.8,130.7c11.7,24.8,23.4,49.6,35.2,74.3
			c0.9,1.9,1.8,3.8,3.1,5.5c3,4,7.8,5.2,12.1,3.2c4.4-2.1,6.8-6.9,5.5-11.7c-0.6-2.2-1.5-4.2-2.5-6.3
			c-33.5-70.4-67.1-140.9-100.7-211.2c-1.5-3-1.4-5.2,0.7-7.8c6.5-8.5,14.8-14.9,24.4-19.3c26.5-12,54.2-19.7,83.1-22.8
			c9.8-1.1,19.2,0.9,28.1,5.3c3,1.5,4.1,3.3,4,6.7c-0.1,41.9-0.1,83.9-0.1,125.8c0,40,0,80,0,120c0,1.8,0,3.6,0.3,5.3
			c0.8,4.9,4.8,8.3,9.8,8.2c4.7-0.1,8.7-3.4,9.4-8.1c0.3-2.1,0.3-4.2,0.3-6.3c0-82.1,0.1-164.2-0.1-246.3c0-4.6,1.9-6.7,5.4-8.4
			c9.1-4.3,18.6-5.2,28.3-2.8c21.4,5.3,42.9,10.3,64.2,16.1c13.5,3.7,26.2,9.2,35.5,20.4c0.5,0.6,1,1.2,1.6,1.8
			c5.3,5.7,6.2,11.1,2.6,18.9c-32.4,69.6-64.2,139.4-96.2,209.1c-1.7,3.6-3.4,7.6-0.8,11c2,2.5,5.2,5,8.3,5.6
			c4.6,0.8,7.7-2.6,9.6-6.6c4.5-9.6,8.9-19.3,13.4-29c27.8-60.6,55.7-121.2,83.4-181.9c1.5-3.2,2.9-4.3,6.5-3.5
			c10,2.1,18.5,6.5,24.9,14.6c15.2,19.2,28.1,39.8,35,63.5c2,6.8,2.9,13.8,4.2,20.8c0.7,3.7-0.6,6.5-3.6,9.2
			c-46.8,42.2-93.5,84.6-140.2,127c-4.7,4.2-6.1,9-4.1,13.3c3.1,6.6,10.7,7.9,17.1,2.5c5.6-4.7,10.8-9.7,16.2-14.6
			c37.4-34.1,74.8-68.3,112.2-102.4C490.8,223,491.6,222.4,492.9,221.4z"/>
		<path class="st1" d="M316.7,469.2c13.8-18.9,25.8-37.6,45-50.5c6.2,8.6,11.2,17.6,12.8,28c1.1,7.5-3.2,15.7-10.6,19
			C348.9,472.2,333.3,470,316.7,469.2z"/>
		<path class="st1" d="M196.5,470.9c-13.4-0.9-27-0.9-40.2-3c-14-2.2-20.1-12.3-16.3-25.8c2.3-8.1,6.4-15.6,9.9-23.9
			c20.7,13.4,32.2,33.6,47.2,50.7C196.8,469.5,196.7,470.2,196.5,470.9z"/>
	</g>
</g>
<g>
	<circle class="st2" cx="226.7" cy="357.8" r="13.6"/>
	<circle class="st2" cx="281.8" cy="357.8" r="13.6"/>
</g>
<g>
	<path class="st2" d="M313,395.2c-13.3,17.7-35.4,29-58.9,29c-23.3,0-45.3-11.4-58.6-29l3.2-2.5c11.8,12.4,32.5,21.1,55.6,21.1
		c22.5,0,44.3-9.2,55.6-21.1L313,395.2z"/>
</g>
</svg>
